<svg width="161" height="67" viewBox="0 0 161 67" fill="none" xmlns="http://www.w3.org/2000/svg">
<path d="M16.881 56.0871L25.3215 60.0631L18.8619 66.4078L3.53123 59.2172L7.32084 55.4949V34.8535L0 27.7475H7.32084V8.79798L16.3642 0V4.48359H24.2018L30.2307 10.3207L23.8573 16.5808L17.2255 10.0669L16.9671 27.7475H23.9434V34.8535H17.2255L16.881 56.0871Z" fill="#E9ED0E"/>
<path d="M124.454 53.7184L106.54 45.2588V35.5303L119.373 22.9255L132.206 28.9318V34.1768L125.66 40.6061V36.6301L115.669 31.9773V38.9987L133.498 47.3737L133.584 56.6793L123.076 67L106.281 59.048V56.2563L113.602 48.9811V51.9419L124.54 57.1023V53.7184H124.454Z" fill="#E9ED0E"/>
<path d="M101.544 34.0076L98.8743 36.5455V51.1806L87.9362 62.0089H78.2899L67.6101 51.519L67.2656 36.3763L64.6817 34.0076L68.2991 27.5783H77.7731V48.1352L83.113 53.2955L88.4529 48.1352V27.5783H101.458L101.544 34.0076Z" fill="#E9ED0E"/>
<path d="M63.3037 56.5947L58.136 61.6705H54.2603L49.0927 57.6944L47.1117 64.3775L27.1302 55.072L29.4556 52.7879V40.2677L43.1499 26.8169L60.0308 34.7689V53.8876L63.3037 56.5947ZM49.0927 40.0985L40.8244 36.1225L38.499 38.4066L36.6903 50.4647L49.0927 57.6944V40.0985Z" fill="#E9ED0E"/>
<path d="M135.909 59.2172L139.268 55.8333V18.6111L136.254 17.173L149.776 3.89142V27.6629H160.8V35.0227H149.776V56.4255L157.613 60.0631L151.154 66.4078L135.909 59.2172Z" fill="#E9ED0E"/>
</svg>
